<svg xmlns="http://www.w3.org/2000/svg" xmlns:xlink="http://www.w3.org/1999/xlink" fill="none" stroke="currentColor" stroke-width="2" stroke-linecap="round" stroke-linejoin="round" viewBox="0 0 24 24">
  <defs>
    <linearGradient id="a">
      <stop offset="0" stop-color="#ff423c"/>
      <stop offset="1" stop-color="#ffe441"/>
    </linearGradient>
    <linearGradient xlink:href="#a" id="b" x1="3" y1="15.5" x2="21" y2="15.5" gradientUnits="userSpaceOnUse" spreadMethod="reflect"/>
  </defs>
  <path d="M21 15l-5-5L5 21M5 3h14c1.108 0 2 .892 2 2v14c0 1.108-.892 2-2 2H5c-1.108 0-2-.892-2-2V5c0-1.108.892-2 2-2z" stroke="url(#b)"/>
  <path d="M5.15418 9.70744H6.3579l.16774-1.66747h-1.1248v-.81893h1.2728l.2368-2.0424h1.20373l-.2368 2.0424h1.3616l.2368-2.0424h1.2136l-.24667 2.0424h1.08534v.81893h-1.22347l-.15787 1.66747h1.16427l.0099.81893h-1.3024l-.21707 1.9832H8.59765l.2072-1.9832H7.43338l-.21707 1.9832H5.99285l.2368-1.9832h-1.0656zm2.5752-1.66747l-.16773 1.66747H8.9035l.19734-1.66747z" aria-label="#" fill="#555" stroke="none"/>
</svg>
